<svg id="visual" viewBox="0 0 960 540" width="960" height="540" xmlns="http://www.w3.org/2000/svg" xmlns:xlink="http://www.w3.org/1999/xlink" version="1.1"><path d="M0 332L22.8 329C45.7 326 91.3 320 137 321.2C182.7 322.3 228.3 330.7 274 340C319.7 349.3 365.3 359.7 411.2 358.8C457 358 503 346 548.8 347C594.7 348 640.3 362 686 372.5C731.7 383 777.3 390 823 394C868.7 398 914.3 399 937.2 399.5L960 400L960 541L937.2 541C914.3 541 868.7 541 823 541C777.3 541 731.7 541 686 541C640.3 541 594.7 541 548.8 541C503 541 457 541 411.2 541C365.3 541 319.7 541 274 541C228.3 541 182.7 541 137 541C91.3 541 45.7 541 22.8 541L0 541Z" fill="#af9cf3"></path><path d="M0 426L22.8 420.5C45.7 415 91.3 404 137 395.3C182.7 386.7 228.3 380.3 274 377.5C319.7 374.7 365.3 375.3 411.2 376.3C457 377.3 503 378.7 548.8 384.3C594.7 390 640.3 400 686 401.7C731.7 403.3 777.3 396.7 823 392.7C868.7 388.7 914.3 387.3 937.2 386.7L960 386L960 541L937.2 541C914.3 541 868.7 541 823 541C777.3 541 731.7 541 686 541C640.3 541 594.7 541 548.8 541C503 541 457 541 411.2 541C365.3 541 319.7 541 274 541C228.3 541 182.7 541 137 541C91.3 541 45.7 541 22.8 541L0 541Z" fill="#a390e5"></path><path d="M0 449L22.8 443C45.7 437 91.3 425 137 423.7C182.7 422.3 228.3 431.7 274 429.7C319.7 427.7 365.3 414.3 411.2 406.3C457 398.3 503 395.7 548.8 399.7C594.7 403.7 640.3 414.3 686 419.3C731.7 424.3 777.3 423.7 823 419.8C868.7 416 914.3 409 937.2 405.5L960 402L960 541L937.2 541C914.3 541 868.7 541 823 541C777.3 541 731.7 541 686 541C640.3 541 594.7 541 548.8 541C503 541 457 541 411.2 541C365.3 541 319.7 541 274 541C228.3 541 182.7 541 137 541C91.3 541 45.7 541 22.8 541L0 541Z" fill="#9785d8"></path><path d="M0 477L22.8 470.2C45.7 463.3 91.3 449.7 137 445C182.7 440.3 228.3 444.7 274 449C319.7 453.3 365.3 457.7 411.2 458.3C457 459 503 456 548.8 459C594.7 462 640.3 471 686 475.2C731.7 479.3 777.3 478.7 823 478.3C868.7 478 914.3 478 937.2 478L960 478L960 541L937.2 541C914.3 541 868.7 541 823 541C777.3 541 731.7 541 686 541C640.3 541 594.7 541 548.8 541C503 541 457 541 411.2 541C365.3 541 319.7 541 274 541C228.3 541 182.7 541 137 541C91.3 541 45.7 541 22.8 541L0 541Z" fill="#8b79cb"></path><path d="M0 513L22.8 511.3C45.7 509.7 91.3 506.3 137 499.7C182.7 493 228.3 483 274 483C319.7 483 365.3 493 411.2 493.5C457 494 503 485 548.8 482C594.7 479 640.3 482 686 486.5C731.7 491 777.3 497 823 497.8C868.7 498.7 914.3 494.3 937.2 492.2L960 490L960 541L937.2 541C914.3 541 868.7 541 823 541C777.3 541 731.7 541 686 541C640.3 541 594.7 541 548.8 541C503 541 457 541 411.2 541C365.3 541 319.7 541 274 541C228.3 541 182.7 541 137 541C91.3 541 45.7 541 22.8 541L0 541Z" fill="#7f6ebe"></path></svg>