<svg id="visual" viewBox="0 0 1920 1080" width="1920" height="1080" xmlns="http://www.w3.org/2000/svg" xmlns:xlink="http://www.w3.org/1999/xlink" version="1.1"><rect x="0" y="0" width="1920" height="1080" fill="#FFFFFF"></rect><defs><linearGradient id="grad1_0" x1="43.8%" y1="0%" x2="100%" y2="100%"><stop offset="14.444444444444446%" stop-color="#af9cf3" stop-opacity="1"></stop><stop offset="85.55555555555554%" stop-color="#af9cf3" stop-opacity="1"></stop></linearGradient></defs><defs><linearGradient id="grad1_1" x1="43.8%" y1="0%" x2="100%" y2="100%"><stop offset="14.444444444444446%" stop-color="#af9cf3" stop-opacity="1"></stop><stop offset="85.55555555555554%" stop-color="#cbbcf8" stop-opacity="1"></stop></linearGradient></defs><defs><linearGradient id="grad1_2" x1="43.8%" y1="0%" x2="100%" y2="100%"><stop offset="14.444444444444446%" stop-color="#e6ddfc" stop-opacity="1"></stop><stop offset="85.55555555555554%" stop-color="#cbbcf8" stop-opacity="1"></stop></linearGradient></defs><defs><linearGradient id="grad1_3" x1="43.8%" y1="0%" x2="100%" y2="100%"><stop offset="14.444444444444446%" stop-color="#e6ddfc" stop-opacity="1"></stop><stop offset="85.55555555555554%" stop-color="#ffffff" stop-opacity="1"></stop></linearGradient></defs><defs><linearGradient id="grad2_0" x1="0%" y1="0%" x2="56.3%" y2="100%"><stop offset="14.444444444444446%" stop-color="#af9cf3" stop-opacity="1"></stop><stop offset="85.55555555555554%" stop-color="#af9cf3" stop-opacity="1"></stop></linearGradient></defs><defs><linearGradient id="grad2_1" x1="0%" y1="0%" x2="56.3%" y2="100%"><stop offset="14.444444444444446%" stop-color="#cbbcf8" stop-opacity="1"></stop><stop offset="85.55555555555554%" stop-color="#af9cf3" stop-opacity="1"></stop></linearGradient></defs><defs><linearGradient id="grad2_2" x1="0%" y1="0%" x2="56.3%" y2="100%"><stop offset="14.444444444444446%" stop-color="#cbbcf8" stop-opacity="1"></stop><stop offset="85.55555555555554%" stop-color="#e6ddfc" stop-opacity="1"></stop></linearGradient></defs><defs><linearGradient id="grad2_3" x1="0%" y1="0%" x2="56.3%" y2="100%"><stop offset="14.444444444444446%" stop-color="#ffffff" stop-opacity="1"></stop><stop offset="85.55555555555554%" stop-color="#e6ddfc" stop-opacity="1"></stop></linearGradient></defs><g transform="translate(1920, 0)"><path d="M0 880C-109.5 852.7 -218.9 825.5 -325.3 785.3C-431.7 745.1 -534.9 692 -616.6 616.6C-698.3 541.2 -758.3 443.6 -813.9 337.1C-869.6 230.7 -920.8 115.3 -972 0L0 0Z" fill="#f2eefd"></path><path d="M0 660C-82.1 639.6 -164.2 619.1 -244 589C-323.7 558.8 -401.2 519 -462.4 462.4C-523.7 405.9 -568.7 332.7 -610.5 252.9C-652.2 173 -690.6 86.5 -729 0L0 0Z" fill="#d9cdfa"></path><path d="M0 440C-54.7 426.4 -109.5 412.7 -162.6 392.6C-215.8 372.6 -267.5 346 -308.3 308.3C-349.1 270.6 -379.2 221.8 -407 168.6C-434.8 115.3 -460.4 57.7 -486 0L0 0Z" fill="#bdacf5"></path><path d="M0 220C-27.4 213.2 -54.7 206.4 -81.3 196.3C-107.9 186.3 -133.7 173 -154.1 154.1C-174.6 135.3 -189.6 110.9 -203.5 84.3C-217.4 57.7 -230.2 28.8 -243 0L0 0Z" fill="#af9cf3"></path></g><g transform="translate(0, 1080)"><path d="M0 -946C139.6 -957.3 279.1 -968.6 372 -898C464.8 -827.4 510.9 -674.8 565 -565C619 -455.2 680.9 -388.2 727.1 -301.2C773.2 -214.1 803.6 -107.1 834 0L0 0Z" fill="#f2eefd"></path><path d="M0 -709.5C104.7 -718 209.3 -726.5 279 -673.5C348.6 -620.5 383.2 -506.1 423.7 -423.7C464.3 -341.4 510.7 -291.2 545.3 -225.9C579.9 -160.6 602.7 -80.3 625.5 0L0 0Z" fill="#d9cdfa"></path><path d="M0 -473C69.8 -478.7 139.6 -484.3 186 -449C232.4 -413.7 255.5 -337.4 282.5 -282.5C309.5 -227.6 340.5 -194.1 363.5 -150.6C386.6 -107.1 401.8 -53.5 417 0L0 0Z" fill="#bdacf5"></path><path d="M0 -236.5C34.9 -239.3 69.8 -242.2 93 -224.5C116.2 -206.8 127.7 -168.7 141.2 -141.2C154.8 -113.8 170.2 -97.1 181.8 -75.3C193.3 -53.5 200.9 -26.8 208.5 0L0 0Z" fill="#af9cf3"></path></g></svg>