<svg id="visual" viewBox="0 0 540 960" width="540" height="960" xmlns="http://www.w3.org/2000/svg" xmlns:xlink="http://www.w3.org/1999/xlink" version="1.1"><rect x="0" y="0" width="540" height="960" fill="#FFFFFF"></rect><defs><linearGradient id="grad1_0" x1="0%" y1="0%" x2="100%" y2="100%"><stop offset="30%" stop-color="#af9cf3" stop-opacity="1"></stop><stop offset="70%" stop-color="#af9cf3" stop-opacity="1"></stop></linearGradient></defs><defs><linearGradient id="grad1_1" x1="0%" y1="0%" x2="100%" y2="100%"><stop offset="30%" stop-color="#af9cf3" stop-opacity="1"></stop><stop offset="70%" stop-color="#cbbcf8" stop-opacity="1"></stop></linearGradient></defs><defs><linearGradient id="grad1_2" x1="0%" y1="0%" x2="100%" y2="100%"><stop offset="30%" stop-color="#e6ddfc" stop-opacity="1"></stop><stop offset="70%" stop-color="#cbbcf8" stop-opacity="1"></stop></linearGradient></defs><defs><linearGradient id="grad1_3" x1="0%" y1="0%" x2="100%" y2="100%"><stop offset="30%" stop-color="#e6ddfc" stop-opacity="1"></stop><stop offset="70%" stop-color="#ffffff" stop-opacity="1"></stop></linearGradient></defs><defs><linearGradient id="grad2_0" x1="0%" y1="0%" x2="100%" y2="100%"><stop offset="30%" stop-color="#af9cf3" stop-opacity="1"></stop><stop offset="70%" stop-color="#af9cf3" stop-opacity="1"></stop></linearGradient></defs><defs><linearGradient id="grad2_1" x1="0%" y1="0%" x2="100%" y2="100%"><stop offset="30%" stop-color="#cbbcf8" stop-opacity="1"></stop><stop offset="70%" stop-color="#af9cf3" stop-opacity="1"></stop></linearGradient></defs><defs><linearGradient id="grad2_2" x1="0%" y1="0%" x2="100%" y2="100%"><stop offset="30%" stop-color="#cbbcf8" stop-opacity="1"></stop><stop offset="70%" stop-color="#e6ddfc" stop-opacity="1"></stop></linearGradient></defs><defs><linearGradient id="grad2_3" x1="0%" y1="0%" x2="100%" y2="100%"><stop offset="30%" stop-color="#ffffff" stop-opacity="1"></stop><stop offset="70%" stop-color="#e6ddfc" stop-opacity="1"></stop></linearGradient></defs><g transform="translate(540, 0)"><path d="M0 486C-45.1 436.6 -90.3 387.2 -153.8 371.4C-217.4 355.6 -299.5 373.4 -342.9 342.9C-386.4 312.5 -391.3 234 -407.4 168.8C-423.5 103.6 -450.8 51.8 -478 0L0 0Z" fill="#f2eefd"></path><path d="M0 364.5C-33.8 327.5 -67.7 290.4 -115.4 278.5C-163.1 266.7 -224.6 280 -257.2 257.2C-289.8 234.4 -293.5 175.5 -305.6 126.6C-317.6 77.7 -338.1 38.8 -358.5 0L0 0Z" fill="#d9cdfa"></path><path d="M0 243C-22.6 218.3 -45.1 193.6 -76.9 185.7C-108.7 177.8 -149.7 186.7 -171.5 171.5C-193.2 156.3 -195.7 117 -203.7 84.4C-211.8 51.8 -225.4 25.9 -239 0L0 0Z" fill="#bdacf5"></path><path d="M0 121.5C-11.3 109.2 -22.6 96.8 -38.5 92.8C-54.4 88.9 -74.9 93.3 -85.7 85.7C-96.6 78.1 -97.8 58.5 -101.9 42.2C-105.9 25.9 -112.7 12.9 -119.5 0L0 0Z" fill="#af9cf3"></path></g><g transform="translate(0, 960)"><path d="M0 -445C45.9 -417.6 91.9 -390.1 158 -381.6C224.2 -373 310.7 -383.4 343.7 -343.7C376.6 -303.9 356 -214.1 358.5 -148.5C360.9 -82.9 386.5 -41.4 412 0L0 0Z" fill="#f2eefd"></path><path d="M0 -333.7C34.4 -313.2 68.9 -292.6 118.5 -286.2C168.2 -279.8 233 -287.5 257.7 -257.7C282.4 -227.9 267 -160.6 268.8 -111.4C270.7 -62.1 289.9 -31.1 309 0L0 0Z" fill="#d9cdfa"></path><path d="M0 -222.5C23 -208.8 45.9 -195.1 79 -190.8C112.1 -186.5 155.4 -191.7 171.8 -171.8C188.3 -152 178 -107.1 179.2 -74.2C180.5 -41.4 193.2 -20.7 206 0L0 0Z" fill="#bdacf5"></path><path d="M0 -111.2C11.5 -104.4 23 -97.5 39.5 -95.4C56.1 -93.3 77.7 -95.8 85.9 -85.9C94.1 -76 89 -53.5 89.6 -37.1C90.2 -20.7 96.6 -10.4 103 0L0 0Z" fill="#af9cf3"></path></g></svg>